<svg version="1.1" id="Layer_1" xmlns="http://www.w3.org/2000/svg" xmlns:xlink="http://www.w3.org/1999/xlink" x="0px" y="0px"
	 width="100%" viewBox="0 0 360 360" enable-background="new 0 0 360 360" xml:space="preserve">
<path fill="#010101" opacity="1.000000" stroke="none" 
	d="
M170.000000,361.000000 
	C113.352821,361.000000 57.205650,361.000000 1.058473,361.000000 
	C1.038982,360.852875 1.002408,360.705780 1.002405,360.558655 
	C0.999983,240.766907 1.000000,120.975151 1.000000,1.091700 
	C120.897163,1.091700 240.794418,1.091700 360.845825,1.091700 
	C360.845825,120.999847 360.845825,240.999908 360.845825,361.000000 
	C297.455627,361.000000 233.977814,361.000000 170.000000,361.000000 
M206.460495,210.536713 
	C208.856262,208.899353 211.252014,207.262009 213.879379,205.466354 
	C212.125290,203.500519 210.837509,202.057281 209.571899,200.638885 
	C186.467102,217.689194 162.886795,206.515839 153.942017,191.076248 
	C144.955505,175.564651 147.140182,149.379868 173.962097,137.930817 
	C173.263123,136.001923 172.556915,134.053055 171.747131,131.818390 
	C167.943634,133.600479 164.535599,135.197266 161.394760,135.879013 
	C160.926758,134.222565 160.458740,132.566132 160.381073,130.332321 
	C168.585312,127.499939 176.789536,124.667542 185.275055,121.738045 
	C185.275055,120.894112 185.275055,118.988022 185.275055,116.881248 
	C170.213501,116.870941 157.842316,122.592957 146.122696,131.996262 
	C145.512451,132.877411 144.902206,133.758560 143.999207,135.174591 
	C139.998550,142.184875 134.743240,148.777542 132.243469,156.287415 
	C125.922577,175.276657 130.242645,192.861115 141.644455,209.373047 
	C139.720825,209.599609 137.797195,209.826187 135.283005,209.715210 
	C132.326035,203.055496 129.369461,196.395615 126.399323,189.741776 
	C126.386566,189.713211 126.180046,189.771149 126.064026,189.788681 
	C125.172935,182.324661 123.288857,174.807144 123.687195,167.412598 
	C124.041885,160.828217 126.923347,154.379959 129.363068,147.877411 
	C129.409256,147.202072 129.455444,146.526718 129.741028,145.174377 
	C134.558304,138.915405 139.375565,132.656433 144.804214,126.656860 
	C145.367508,126.527878 145.930801,126.398895 146.494095,126.269905 
	C146.162048,125.839302 145.830002,125.408699 145.285034,124.283768 
	C144.064407,122.788689 142.843765,121.293610 141.630173,119.807144 
	C119.022018,138.021042 110.666466,169.482971 120.866852,196.918579 
	C131.269547,224.898361 158.655426,243.091827 188.522171,241.864532 
	C215.076828,240.773346 242.300095,221.682556 248.659012,199.542557 
	C246.907242,198.797897 245.134796,198.044449 244.495209,197.772583 
	C238.493729,205.125366 232.883209,211.999176 226.963501,217.945969 
	C226.521149,216.047714 226.078796,214.149460 225.941162,211.700302 
	C228.115265,209.062912 230.289352,206.425522 233.194504,203.869370 
	C236.135376,203.564682 236.048660,201.940475 235.029526,199.155304 
	C239.250565,190.975800 241.718033,182.401749 241.357422,173.137665 
	C238.955078,173.137665 237.019669,173.137665 235.106079,173.137665 
	C233.672806,196.418137 223.201828,206.422302 207.852615,215.853317 
	C207.236710,214.256760 206.620804,212.660187 206.460495,210.536713 
M245.470184,102.096237 
	C242.694000,99.504005 240.126892,96.632462 237.103989,94.369850 
	C226.338165,86.311752 215.414825,78.464203 204.558884,70.526306 
	C203.455658,69.719620 202.404892,68.841217 200.597305,67.420326 
	C200.597305,95.520432 200.597305,122.676003 200.597305,150.323883 
	C199.034744,149.491486 198.070099,148.874115 197.029251,148.439102 
	C186.596420,144.078781 176.719894,145.040894 168.066101,152.430893 
	C159.400284,159.831146 156.725449,169.505768 159.739700,180.406265 
	C163.276077,193.194916 176.066467,201.461670 188.769821,199.658951 
	C202.845871,197.661438 212.386642,186.662979 212.452072,172.033020 
	C212.542938,151.714127 212.462036,131.394440 212.454819,111.075096 
	C212.454178,109.272812 212.454712,107.470528 212.454712,105.171150 
	C223.275635,107.577202 232.366272,111.945961 239.243958,120.159508 
	C246.348541,128.644043 247.674332,138.700516 246.590668,149.381744 
	C255.727905,133.616257 254.754318,118.090179 245.470184,102.096237 
M150.535797,266.789062 
	C149.955093,269.392731 149.374390,271.996399 148.520889,275.823212 
	C146.712646,267.777679 145.195511,261.027405 143.705368,254.397217 
	C141.175827,254.397217 139.114929,254.397217 136.878906,254.397217 
	C136.117310,265.294556 135.377731,275.877045 134.632553,286.539551 
	C136.736832,286.539551 138.294418,286.539551 139.971085,286.539551 
	C140.361755,280.623596 140.731873,275.018890 141.101990,269.414185 
	C141.325882,269.367950 141.549774,269.321716 141.773666,269.275513 
	C143.146011,274.813782 144.518356,280.352081 145.902496,285.937988 
	C147.542633,285.937988 148.967361,285.937988 150.446777,285.937988 
	C151.787506,280.603851 153.071320,275.496185 154.640198,269.254364 
	C155.348953,275.805969 155.928146,281.159973 156.519135,286.622925 
	C158.332169,286.622925 159.919525,286.622925 162.020142,286.622925 
	C161.330215,275.693268 160.655991,265.012115 159.978134,254.273560 
	C157.497437,254.273560 155.549255,254.273560 153.289932,254.273560 
	C152.420273,258.252014 151.576019,262.114288 150.535797,266.789062 
M172.864182,272.365723 
	C172.864182,266.415894 172.864182,260.466095 172.864182,254.345337 
	C170.468903,254.345337 168.582642,254.345337 166.804169,254.345337 
	C166.804169,262.747406 166.422180,270.884430 166.935242,278.964600 
	C167.291534,284.575897 170.689301,287.129089 175.767044,287.118622 
	C180.715302,287.108429 184.454193,284.355896 184.791138,279.009338 
	C185.308121,270.806183 184.926971,262.546417 184.926971,254.325531 
	C182.843430,254.325531 181.085754,254.325531 178.933121,254.325531 
	C178.933121,260.870575 179.033279,267.165863 178.888779,273.455597 
	C178.821548,276.381134 179.974564,281.110107 175.823654,281.061859 
	C171.506424,281.011658 173.365204,276.187286 172.864182,272.365723 
M198.771286,259.603455 
	C200.398514,259.683563 202.025742,259.763672 203.883255,259.855133 
	C204.178375,258.326111 204.477142,256.778168 204.762299,255.300781 
	C198.564117,252.744278 192.911514,254.185944 190.530731,258.714508 
	C188.109558,263.319916 189.895142,268.119232 194.781616,272.167938 
	C196.835663,273.869781 199.707764,277.036865 199.266693,278.803497 
	C198.247696,282.884796 194.223663,281.181213 191.179779,280.813416 
	C190.871613,280.776154 190.541336,280.922089 189.957977,281.033112 
	C189.700119,282.508636 189.427338,284.069519 189.168015,285.553406 
	C196.229599,288.281555 202.299484,286.825195 204.940430,281.998108 
	C207.770676,276.825012 205.889023,271.781738 199.474243,267.344940 
	C198.790207,266.871826 198.006256,266.492188 197.445023,265.901611 
	C195.388596,263.737610 194.790710,261.621246 198.771286,259.603455 
M236.839478,286.211792 
	C236.839478,284.623505 236.839478,283.035217 236.839478,281.475525 
	C229.061218,281.027008 226.988327,278.711273 226.950958,270.821289 
	C226.911575,262.505554 229.090240,259.940308 236.874756,259.311737 
	C237.067123,257.776825 237.263107,256.212982 237.478897,254.491013 
	C231.537399,253.032837 226.687317,254.153198 223.504517,258.973541 
	C218.825104,266.060455 218.798706,273.785828 222.455948,281.234711 
	C225.190399,286.804077 230.396759,287.766998 236.839478,286.211792 
M210.016052,286.077454 
	C211.956650,286.342346 213.897232,286.607239 216.090347,286.906586 
	C216.090347,280.779663 216.090347,275.481110 216.090347,270.182587 
	C216.090347,264.929474 216.090347,259.676361 216.090347,254.289139 
	C213.803726,254.289139 212.062836,254.289139 209.839844,254.289139 
	C209.839844,264.697906 209.839844,274.925537 210.016052,286.077454 
M215.408661,206.482849 
	C215.408661,206.482849 215.519806,206.417053 215.408661,206.482849 
z"/>
<path fill="#FCFCFC" opacity="1.000000" stroke="none" 
	d="
M245.681824,102.393784 
	C254.754318,118.090179 255.727905,133.616257 246.590668,149.381744 
	C247.674332,138.700516 246.348541,128.644043 239.243958,120.159508 
	C232.366272,111.945961 223.275635,107.577202 212.454712,105.171150 
	C212.454712,107.470528 212.454178,109.272812 212.454819,111.075096 
	C212.462036,131.394440 212.542938,151.714127 212.452072,172.033020 
	C212.386642,186.662979 202.845871,197.661438 188.769821,199.658951 
	C176.066467,201.461670 163.276077,193.194916 159.739700,180.406265 
	C156.725449,169.505768 159.400284,159.831146 168.066101,152.430893 
	C176.719894,145.040894 186.596420,144.078781 197.029251,148.439102 
	C198.070099,148.874115 199.034744,149.491486 200.597305,150.323883 
	C200.597305,122.676003 200.597305,95.520432 200.597305,67.420326 
	C202.404892,68.841217 203.455658,69.719620 204.558884,70.526306 
	C215.414825,78.464203 226.338165,86.311752 237.103989,94.369850 
	C240.126892,96.632462 242.694000,99.504005 245.681824,102.393784 
z"/>
<path fill="#F3F3F3" opacity="1.000000" stroke="none" 
	d="
M146.899734,131.965118 
	C157.842316,122.592957 170.213501,116.870941 185.275055,116.881248 
	C185.275055,118.988022 185.275055,120.894112 185.275055,121.738045 
	C176.789536,124.667542 168.585312,127.499939 159.856018,130.672028 
	C158.130615,131.962601 156.930252,132.913467 155.431641,133.948914 
	C154.085373,135.013168 153.037369,135.992844 151.684052,137.052338 
	C150.589951,138.089645 149.801132,139.047134 148.700348,140.159393 
	C139.909378,150.333099 135.737762,161.878860 136.205627,175.022705 
	C136.240753,176.009430 136.949890,176.972153 137.368439,177.968903 
	C137.391159,177.991791 137.326859,177.983505 137.004181,178.402817 
	C138.904587,185.282150 141.127655,191.742172 143.471100,198.540222 
	C158.251114,221.215729 185.660645,228.719147 208.173996,216.557846 
	C223.201828,206.422302 233.672806,196.418137 235.106079,173.137665 
	C237.019669,173.137665 238.955078,173.137665 241.357422,173.137665 
	C241.718033,182.401749 239.250565,190.975800 234.706207,199.701523 
	C233.743088,201.427872 233.103271,202.608002 232.463440,203.788147 
	C230.289352,206.425522 228.115265,209.062912 225.484192,212.150864 
	C211.786865,225.055557 196.256378,230.611481 178.061584,228.324585 
	C163.499710,226.494308 151.937744,219.247375 142.145920,208.718979 
	C130.242645,192.861115 125.922577,175.276657 132.243469,156.287415 
	C134.743240,148.777542 139.998550,142.184875 144.426468,134.756134 
	C145.535736,133.546829 146.217728,132.755966 146.899734,131.965118 
z"/>
<path fill="#F3F3F3" opacity="1.000000" stroke="none" 
	d="
M128.689667,147.871628 
	C126.923347,154.379959 124.041885,160.828217 123.687195,167.412598 
	C123.288857,174.807144 125.172935,182.324661 126.064026,189.788681 
	C126.180046,189.771149 126.386566,189.713211 126.399323,189.741776 
	C129.369461,196.395615 132.326035,203.055496 135.657928,210.216400 
	C137.546021,212.485474 138.977615,214.331467 140.584641,216.009430 
	C163.935974,240.391830 204.422546,241.717972 227.272690,218.872971 
	C232.883209,211.999176 238.493729,205.125366 244.495209,197.772583 
	C245.134796,198.044449 246.907242,198.797897 248.659012,199.542557 
	C242.300095,221.682556 215.076828,240.773346 188.522171,241.864532 
	C158.655426,243.091827 131.269547,224.898361 120.866852,196.918579 
	C110.666466,169.482971 119.022018,138.021042 141.630173,119.807144 
	C142.843765,121.293610 144.064407,122.788689 145.158829,124.853691 
	C144.752686,125.748230 144.472763,126.072845 144.192841,126.397461 
	C139.375565,132.656433 134.558304,138.915405 129.421234,145.710907 
	C128.964172,146.788818 128.826920,147.330231 128.689667,147.871628 
z"/>
<path fill="#F3F3F3" opacity="1.000000" stroke="none" 
	d="
M161.127563,136.794067 
	C164.535599,135.197266 167.943634,133.600479 171.747131,131.818390 
	C172.556915,134.053055 173.263123,136.001923 173.962097,137.930817 
	C147.140182,149.379868 144.955505,175.564651 153.942017,191.076248 
	C162.886795,206.515839 186.467102,217.689194 209.571899,200.638885 
	C210.837509,202.057281 212.125290,203.500519 213.879379,205.466354 
	C211.252014,207.262009 208.856262,208.899353 205.868958,210.834808 
	C184.548248,220.916336 165.246429,215.967026 149.438736,196.569595 
	C148.979324,195.852463 148.626160,195.407883 148.214111,194.664627 
	C147.803955,193.897949 147.452652,193.429947 147.048279,192.594315 
	C141.533218,180.874985 140.978592,169.258423 145.245743,157.435593 
	C148.323578,148.907959 154.354507,142.598648 161.093842,136.814270 
	C161.129776,136.800308 161.127563,136.794083 161.127563,136.794067 
z"/>
<path fill="#EFEFEF" opacity="1.000000" stroke="none" 
	d="
M150.633789,266.382812 
	C151.576019,262.114288 152.420273,258.252014 153.289932,254.273560 
	C155.549255,254.273560 157.497437,254.273560 159.978134,254.273560 
	C160.655991,265.012115 161.330215,275.693268 162.020142,286.622925 
	C159.919525,286.622925 158.332169,286.622925 156.519135,286.622925 
	C155.928146,281.159973 155.348953,275.805969 154.640198,269.254364 
	C153.071320,275.496185 151.787506,280.603851 150.446777,285.937988 
	C148.967361,285.937988 147.542633,285.937988 145.902496,285.937988 
	C144.518356,280.352081 143.146011,274.813782 141.773666,269.275513 
	C141.549774,269.321716 141.325882,269.367950 141.101990,269.414185 
	C140.731873,275.018890 140.361755,280.623596 139.971085,286.539551 
	C138.294418,286.539551 136.736832,286.539551 134.632553,286.539551 
	C135.377731,275.877045 136.117310,265.294556 136.878906,254.397217 
	C139.114929,254.397217 141.175827,254.397217 143.705368,254.397217 
	C145.195511,261.027405 146.712646,267.777679 148.520889,275.823212 
	C149.374390,271.996399 149.955093,269.392731 150.633789,266.382812 
z"/>
<path fill="#0D0D0D" opacity="1.000000" stroke="none" 
	d="
M227.118103,218.409470 
	C204.422546,241.717972 163.935974,240.391830 140.584641,216.009430 
	C138.977615,214.331467 137.546021,212.485474 135.953217,210.385178 
	C137.797195,209.826187 139.720825,209.599609 141.895187,209.046021 
	C151.937744,219.247375 163.499710,226.494308 178.061584,228.324585 
	C196.256378,230.611481 211.786865,225.055557 225.331818,212.426315 
	C226.078796,214.149460 226.521149,216.047714 227.118103,218.409470 
z"/>
<path fill="#EFEFEF" opacity="1.000000" stroke="none" 
	d="
M172.861450,272.846436 
	C173.365204,276.187286 171.506424,281.011658 175.823654,281.061859 
	C179.974564,281.110107 178.821548,276.381134 178.888779,273.455597 
	C179.033279,267.165863 178.933121,260.870575 178.933121,254.325531 
	C181.085754,254.325531 182.843430,254.325531 184.926971,254.325531 
	C184.926971,262.546417 185.308121,270.806183 184.791138,279.009338 
	C184.454193,284.355896 180.715302,287.108429 175.767044,287.118622 
	C170.689301,287.129089 167.291534,284.575897 166.935242,278.964600 
	C166.422180,270.884430 166.804169,262.747406 166.804169,254.345337 
	C168.582642,254.345337 170.468903,254.345337 172.864182,254.345337 
	C172.864182,260.466095 172.864182,266.415894 172.861450,272.846436 
z"/>
<path fill="#0D0D0D" opacity="1.000000" stroke="none" 
	d="
M149.544968,196.842133 
	C165.246429,215.967026 184.548248,220.916336 205.641174,211.098267 
	C206.620804,212.660187 207.236710,214.256760 208.013306,216.205582 
	C185.660645,228.719147 158.251114,221.215729 143.928192,198.488037 
	C146.024918,197.679245 147.784943,197.260696 149.544968,196.842133 
z"/>
<path fill="#F0F0F0" opacity="1.000000" stroke="none" 
	d="
M198.358398,259.729248 
	C194.790710,261.621246 195.388596,263.737610 197.445023,265.901611 
	C198.006256,266.492188 198.790207,266.871826 199.474243,267.344940 
	C205.889023,271.781738 207.770676,276.825012 204.940430,281.998108 
	C202.299484,286.825195 196.229599,288.281555 189.168015,285.553406 
	C189.427338,284.069519 189.700119,282.508636 189.957977,281.033112 
	C190.541336,280.922089 190.871613,280.776154 191.179779,280.813416 
	C194.223663,281.181213 198.247696,282.884796 199.266693,278.803497 
	C199.707764,277.036865 196.835663,273.869781 194.781616,272.167938 
	C189.895142,268.119232 188.109558,263.319916 190.530731,258.714508 
	C192.911514,254.185944 198.564117,252.744278 204.762299,255.300781 
	C204.477142,256.778168 204.178375,258.326111 203.883255,259.855133 
	C202.025742,259.763672 200.398514,259.683563 198.358398,259.729248 
z"/>
<path fill="#F1F1F1" opacity="1.000000" stroke="none" 
	d="
M236.475540,286.459656 
	C230.396759,287.766998 225.190399,286.804077 222.455948,281.234711 
	C218.798706,273.785828 218.825104,266.060455 223.504517,258.973541 
	C226.687317,254.153198 231.537399,253.032837 237.478897,254.491013 
	C237.263107,256.212982 237.067123,257.776825 236.874756,259.311737 
	C229.090240,259.940308 226.911575,262.505554 226.950958,270.821289 
	C226.988327,278.711273 229.061218,281.027008 236.839478,281.475525 
	C236.839478,283.035217 236.839478,284.623505 236.475540,286.459656 
z"/>
<path fill="#F9F9F9" opacity="1.000000" stroke="none" 
	d="
M209.927948,285.615326 
	C209.839844,274.925537 209.839844,264.697906 209.839844,254.289139 
	C212.062836,254.289139 213.803726,254.289139 216.090347,254.289139 
	C216.090347,259.676361 216.090347,264.929474 216.090347,270.182587 
	C216.090347,275.481110 216.090347,280.779663 216.090347,286.906586 
	C213.897232,286.607239 211.956650,286.342346 209.927948,285.615326 
z"/>
<path fill="#0D0D0D" opacity="1.000000" stroke="none" 
	d="
M161.261169,136.336548 
	C161.127563,136.794083 161.129776,136.800308 160.811554,136.273865 
	C158.905502,135.119720 157.317688,134.492035 155.729889,133.864334 
	C156.930252,132.913467 158.130615,131.962601 159.660858,130.960709 
	C160.458740,132.566132 160.926758,134.222565 161.261169,136.336548 
z"/>
<path fill="#0D0D0D" opacity="1.000000" stroke="none" 
	d="
M232.828979,203.828766 
	C233.103271,202.608002 233.743088,201.427872 234.660248,200.058792 
	C236.048660,201.940475 236.135376,203.564682 232.828979,203.828766 
z"/>
<path fill="#0D0D0D" opacity="1.000000" stroke="none" 
	d="
M146.511215,131.980682 
	C146.217728,132.755966 145.535736,133.546829 144.572845,134.488693 
	C144.902206,133.758560 145.512451,132.877411 146.511215,131.980682 
z"/>
<path fill="#0D0D0D" opacity="1.000000" stroke="none" 
	d="
M129.026367,147.874512 
	C128.826920,147.330231 128.964172,146.788818 129.301544,146.049408 
	C129.455444,146.526718 129.409256,147.202072 129.026367,147.874512 
z"/>
<path fill="#0D0D0D" opacity="1.000000" stroke="none" 
	d="
M144.498535,126.527161 
	C144.472763,126.072845 144.752686,125.748230 145.265289,125.200851 
	C145.830002,125.408699 146.162048,125.839302 146.494095,126.269913 
	C145.930801,126.398895 145.367508,126.527878 144.498535,126.527161 
z"/>
<path fill="#0D0D0D" opacity="1.000000" stroke="none" 
	d="
M215.464233,206.449951 
	C215.519806,206.417053 215.408661,206.482849 215.464233,206.449951 
z"/>
<path fill="#010101" opacity="1.000000" stroke="none" 
	d="
M155.431641,133.948914 
	C157.317688,134.492035 158.905502,135.119720 160.775620,136.287827 
	C154.354507,142.598648 148.323578,148.907959 145.245743,157.435593 
	C140.978592,169.258423 141.533218,180.874985 146.803925,192.777084 
	C147.166107,193.872757 147.719543,194.418030 148.272980,194.963303 
	C148.626160,195.407883 148.979324,195.852463 149.438736,196.569580 
	C147.784943,197.260696 146.024918,197.679245 143.807816,198.149994 
	C141.127655,191.742172 138.904587,185.282150 137.145828,178.607849 
	C137.759933,178.442551 137.909729,178.491516 138.059525,178.540497 
	C137.821579,178.342346 137.583649,178.144180 137.345703,177.946030 
	C136.949890,176.972153 136.240753,176.009430 136.205627,175.022705 
	C135.737762,161.878860 139.909378,150.333099 149.071777,140.154678 
	C150.499893,138.987640 151.244629,137.980072 151.989349,136.972504 
	C153.037369,135.992844 154.085373,135.013168 155.431641,133.948914 
z"/>
<path fill="#0D0D0D" opacity="1.000000" stroke="none" 
	d="
M151.684052,137.052338 
	C151.244629,137.980072 150.499893,138.987640 149.383743,139.999908 
	C149.801132,139.047134 150.589951,138.089645 151.684052,137.052338 
z"/>
<path fill="#0D0D0D" opacity="1.000000" stroke="none" 
	d="
M137.368439,177.968903 
	C137.583649,178.144180 137.821579,178.342346 138.059525,178.540497 
	C137.909729,178.491516 137.759933,178.442551 137.468506,178.188538 
	C137.326859,177.983505 137.391159,177.991791 137.368439,177.968903 
z"/>
<path fill="#0D0D0D" opacity="1.000000" stroke="none" 
	d="
M148.214111,194.664627 
	C147.719543,194.418030 147.166107,193.872757 146.857025,193.144714 
	C147.452652,193.429947 147.803955,193.897949 148.214111,194.664627 
z"/>
</svg>